/* XPM */
static char * Mermaid right_1_xpm[] = {
"31 29 11 1",
" 	c None",
".	c #4DF5F5",
"+	c #B0E6E6",
"@	c #000000",
"#	c #1F89D3",
"$	c #EF0BC0",
"%	c #14C2C2",
"&	c #DB9965",
"*	c #9E15B5",
"=	c #AE4CBF",
"-	c #7B1A8C",
"...............................",
"..+..................+++.......",
"...+++.........................",
"...............................",
".................@@@@@@.####...",
"....####...#####@@$$$$@@#%%%...",
"...%%%%%###%%%%%@$$$$$$@@@.....",
"........%%%....@@$$$$$@$$@.....",
"..............@@$$$$$$@@@@@....",
"............@@@$$$$$$@&@@......",
"......@.@@@@@$$$$$@@@&&&@.@@@@.",
"......@@@@$$$$$$$@@&&&&&@@@&&@.",
".....@@@.@@$$$$$$@@&&&&@@@&&@..",
".....@*@..@@$$$$@@@@&@@@&&&@...",
".....@*@...@@@@@@&&&&&@&&@@....",
".@@@@@*@++++...@&@@&&&@&@@.....",
".@*****@......@@@@&@@@@@....##.",
".@@@@**@.....@@=@&&@-@@........",
"....@@=@....@@=@@&@@@@.........",
".....@=@@@@@@=@@&@&&@..........",
".....@===@@===@&@@&@@...#####..",
".....@@======@@@@@@@#####%%%...",
"......@=========@@@%%%%%%%.....",
"...###@@=======@@..............",
".##%%%%@@@@@@@@@...............",
".%%%......@@...................",
"....................++++.......",
"...............................",
"..............................."};
