/* XPM */
static char * Mermaid left_xpm[] = {
"31 29 7 1",
" 	c #4DF5F5",
".	c #000000",
"+	c #EF0BC0",
"@	c #DB9965",
"#	c #9E15B5",
"$	c #7B1A8C",
"%	c #AE4CBF",
"                               ",
"                               ",
"                               ",
"                               ",
"        ......                 ",
"       ..++++..                ",
"     ...++++++.                ",
"     .++.+++++..               ",
"    .....++++++..              ",
"      ..@.++++++...            ",
" .... .@@@...+++++..... .      ",
" .@@...@@@@@..+++++++....      ",
"  .@@...@@@@..++++++.. ...     ",
"   .@@@...@....++++..  .#.     ",
"    ..@@.@@@@@......   .#.     ",
"     ..@.@@@..@.       .#..... ",
"       .....@....      .#####. ",
"        ..$.@@.%..     .##.... ",
"         ....@..%..    .%..    ",
"          .@@.@..%......%.     ",
"          ..@..@.%%%..%%%.     ",
"           .......%%%%%%..     ",
"            ...%%%%%%%%%.      ",
"              ..%%%%%%%..      ",
"               .........       ",
"                   ..          ",
"                               ",
"                               ",
"                               "};
