/* XPM */
static char * collectible 1_xpm[] = {
"32 32 5 1",
" 	c #4DF5F5",
".	c #000000",
"+	c #C3593E",
"@	c #BF8475",
"#	c #D23C15",
"                                ",
"                                ",
"                                ",
"                                ",
"               .                ",
"              ..                ",
"             .+..               ",
"             .@+.               ",
"            ..#+..              ",
"            .++++..             ",
"   ..........+#++++.........    ",
"    ..+++@#+++@@++++##++@+.     ",
"     ..+++@@@++##++@#+++#..     ",
"      ..+++###++++++++....      ",
"       ...+++@+++#++..          ",
"         .+++++++@+#.           ",
"         .++++#++#@+..          ",
"        .@++++++++++++.         ",
"       .+#+++.....++#+.         ",
"       .++++.     .+@#+.        ",
"       .@#.        .+@++.       ",
"      ..++.        .++++.       ",
"      .++..         .+++.       ",
"      .++.          ..++.       ",
"      .+..            .+.       ",
"      ...              ...      ",
"       .                ..      ",
"                                ",
"                                ",
"                                ",
"                                ",
"                                "};
