/* XPM */
static char * collectible_2_xpm[] = {
"32 32 9 1",
" 	c None",
".	c #4DF5F5",
"+	c #B0E6E6",
"@	c #1F89D3",
"#	c #14C2C2",
"$	c #000000",
"%	c #BF8475",
"&	c #D23C15",
"*	c #C3593E",
"...+.........................@..",
"......+.....................@#@.",
".......+++..............@@@@##@.",
"..............$@@@@@@@@@@###....",
"..............$$##########......",
".............$$$................",
".@@@@@.@#@...$%$$..........+....",
".####@@##@..$$&%$.........++....",
"....####....$$*%$$......++......",
"...........$$%%%%$$$............",
"..$$$$$$$$$$$%*%%%%$$$$$$$$$$...",
"...$$$%%%&*%%%&&%%%%**%%&%$$....",
"....$$$%%%&&&%%**%%&*%%%*$$.....",
"....$$$$%%%***%%%%%%%%$$$$......",
".....$$$$$%%%&%%%*%%$$$.........",
".......$$$%%%%%%%&%*$$..........",
"........$$%%%%*%%*&%$$$.........",
".......$$&%%%%%%%%%%%%$$........",
".......$%*%%%$$$$$%%*%$$........",
"......$$%%%%$$$$$$$%&*%$$.......",
"...+++$$&*$$$$....$$%&%%$.......",
"..+..+$$%%$$......$$%%%%$$......",
"......$%%$$........$$%%%$$......",
"......$%%$..........$$%%$$.@....",
"......$%$$...........$$%$$@#....",
"......$$$$.......@@@@$$$$$@#....",
".....$$$$......@@#####$$$$#.....",
".....$$........@#.......$$$.....",
".....$..........................",
".........+++....................",
"................................",
"................................"};
