/* XPM */
static char * collectible_1_xpm[] = {
"32 32 9 1",
" 	c None",
".	c #4DF5F5",
"+	c #1F89D3",
"@	c #B0E6E6",
"#	c #14C2C2",
"$	c #000000",
"%	c #C3593E",
"&	c #BF8475",
"*	c #D23C15",
".............................+..",
"......@.....................+#+.",
".......@@@..............++++##+.",
"..............$++++++++++###....",
"..............$$##########......",
".............$$$................",
".+++++.+#+...$%$$..........@....",
".####++##+..$$&%$.........@@....",
"....####....$$*%$$......@@......",
"...........$$%%%%$$$............",
"..$$$$$$$$$$$%*%%%%$$$$$$$$$$...",
"...$$$%%%&*%%%&&%%%%**%%&%$$....",
"....$$$%%%&&&%%**%%&*%%%*$$.....",
"....$$$$%%%***%%%%%%%%$$$$......",
".....$$$$$%%%&%%%*%%$$$.........",
".......$$$%%%%%%%&%*$$..........",
"........$$%%%%*%%*&%$$$.........",
".......$$&%%%%%%%%%%%%$$........",
".......$%*%%%$$$$$%%*%$$........",
"......$$%%%%$$$$$$$%&*%$$.......",
"...@@@$$&*$$$$....$$%&%%$.......",
"..@..@$$%%$$......$$%%%%$$......",
"......$%%$$........$$%%%$$......",
"......$%%$..........$$%%$$.+....",
"......$%$$...........$$%$$+#....",
"......$$$$.......++++$$$$$+#....",
".....$$$$......++#####$$$$#.....",
".....$$........+#.......$$$.....",
".....$..........................",
".........@@@....................",
"................................",
"................................"};