/* XPM */
static char * floor_1_xpm[] = {
"32 32 5 1",
" 	c None",
".	c #4DF5F5",
"+	c #1F89D3",
"@	c #14C2C2",
"#	c #B0E6E6",
"................................",
"..+++...........................",
"...@+++.....#####........++++...",
"..........##...............@+...",
".......####.....+++++++.........",
"..............++++@@@@++++......",
"...+........+++@@@..............",
"....+++....+@@@@................",
"....@@++++++@...................",
"......@@@+@@@.....###...........",
"........@@@..........########...",
"..........................##....",
"...............+++++............",
"..#####.....+++@@@@+++++........",
"..........++@@..................",
"........++@@.................+..",
"...++++++@@........##........+..",
".....@@@@@.......##...+++++++...",
"...............###...+@@@@......",
"..++++++.....##.....+@@.........",
"..+@@@............++@@..........",
"...........+..+++++@.......###..",
"...........++++@@@@@....####....",
"...........@@.........##......+.",
".....###.#....................+.",
".......###......++......++++++..",
"...............+.......+@@@@....",
".............++@.......+........",
"....+++++.+++@..................",
".....@@@++@@.............####...",
"........@@......................",
"................................"};