/* XPM */
static char * exit_xpm[] = {
"32 32 19 1",
" 	c None",
".	c #4DF5F5",
"+	c #B0E6E6",
"@	c #1F89D3",
"#	c #000000",
"$	c #4AECEC",
"%	c #41160B",
"&	c #541E10",
"*	c #49EAEA",
"=	c #4BEEEE",
"-	c #2187CF",
";	c #14C2C2",
">	c #15C1C1",
",	c #4E271E",
"'	c #4BE3E3",
")	c #4DF4F4",
"!	c #207575",
"~	c #4DF2F2",
"{	c #4CF3F3",
"................................",
"..++.................+++........",
"...++...@@@@.######$...+++......",
"..........###%%&&&##*..=..@@....",
"........##%%%%%%%%%%##@@@-@;....",
"......##%%%%%%%%%%%%%%#>;;;;....",
".....##%%,,%%%&&&&%%%%%##.......",
".@@@.#%%,,%%%%&%%%&%%%%%#'......",
".;;@#%%,%%%%%%%%%%%%%%%%%#...)..",
"..;;#%,%%%%%%%%%%%%%%%%%,#!~.+..",
"...#%%,%%%%%%%%%%%%%%%%%%,##....",
"...#%%,%%%%&%%###%%,%%%%%%,#*...",
"..{#%,%%%%&%%#####%%,%%&%%,%#)..",
"..#%%,%%%%&%#######%%,%&%%%%%#..",
"..#%%,%%%&&#########%,%%&%%%%#..",
"..#%%%%%%&%#########%%,%&&%%%#..",
"..#%%%%%%&%##########%,%%&%%%#..",
"..#%%%%%%%%##########%,%%&%%%#..",
"..#%%%%%%%%##########%%%%&%%%#..",
".+#%%%%%%%%##########%%%%&%%%#..",
"..#%%%%&%%###########%%%%%%%%#..",
"..#%%%%&%%############%%%%%%%#..",
"..#%%%%&%%############%%%%%%%#..",
"..#%%%%&%&############%%%%%%%#..",
"..#%%%%&%&############%%%%%&&#..",
"..#%%%%%%&############%&%%%%&#@.",
"..#%%%%%%&############%&%%%%&#@.",
"..#%%%%%&&############%&%%%%&#;.",
"..#%%%%&%%&###########%&%%%%&#..",
"..#%&&&&&%%##########&&&%%%%&#..",
"...#&,,,,&&%%######%&&%&&%%###..",
"...########################....."};
