/* XPM */
static char * temp1_xpm[] = {
"32 32 20 1",
" 	c None",
".	c #4DF5F5",
"+	c #000000",
"@	c #4AECEC",
"#	c #41160B",
"$	c #541E10",
"%	c #49EAEA",
"&	c #4BEEEE",
"*	c #4DF1F1",
"=	c #4DF4F4",
"-	c #4E271E",
";	c #EF0BC0",
">	c #4BE3E3",
",	c #207575",
"'	c #4DF2F2",
")	c #DB9965",
"!	c #4CF3F3",
"~	c #9E15B5",
"{	c #AE4CBF",
"]	c #7B1A8C",
"................................",
"................................",
".............++++++@............",
"..........+++##$$$++%..&........",
"........++##########++...*......",
"......++##############+=........",
".....++##--###$$$++++++++.......",
".....+##--####$#++;;;;+++>......",
"....+##-########+;;;;;;+++...=..",
"....+#-########++;;;;;+;;+,'....",
"...+##-#######++;;;;;;++++++....",
"...+##-####$+++;;;;;;+)++#-+%...",
"..!+#-+#+++++;;;;;+++)))+#++++..",
"..+##-++++;;;;;;;++)))))+++))+..",
"..+##+++#++;;;;;;++))))+++))++..",
"..+##+~+#$++;;;;++++)+++)))+#+..",
"..+##+~+#$#++++++)))))+))++##+..",
".+++++~+###+++++)++)))+)++###+..",
".+~~~~~+###+++++++)+++++#$###+..",
".++++~~+###++++{+))+]++##$###+..",
"..+#++{+##++++{++)++++#######+..",
"..+##+{++++++{++)+))++#######+..",
"..+##+{{{++{{{+)++)+++#######+..",
"..+##++{{{{{{+++++++++#######+..",
"..+###+{{{{{{{{{++++++#####$$+..",
"..+###++{{{{{{{+++++++#$####$+..",
"..+####+++++++++++++++#$####$+..",
"..+#####$$++++++++++++#$####$+..",
"..+####$##$+++++++++++#$####$+..",
"..+#$$$$$##++++++++++$$$####$+..",
"...+$----$$##++++++#$$#$$##+++..",
"...++++++++++++++++++++++++....."};
