/* XPM */
static char * pirate_xpm[] = {
"32 32 10 1",
" 	c None",
".	c #4DF5F5",
"+	c #2B0404",
"@	c #626363",
"#	c #000000",
"$	c #FF00E1",
"%	c #D3F8F8",
"&	c #6C3023",
"*	c #B37F74",
"=	c #8B1919",
"................................",
"................................",
"................................",
"...............+++..............",
"..............+++++.............",
".........+++..+@@@+..+++........",
".........+++.++@@@++.+++........",
"........++++.+++@+++.++++.......",
"........++++++@+++@++++++.......",
"........+++++++@@@+####++.......",
".........+++++@+++@#$$#+........",
"...@@......++#######$##.........",
"...@.@.....###%%%%%#$#..........",
"...@@......###%%#%%#$#..........",
"....@@@....#&#######$#..........",
"...@@@@...#.&#*#$#*#$#..........",
"...@@@*.....&##$$$##$#..........",
".....***....&#$$$$$$$#..........",
"......***..#&##########.........",
".......***###&&&&&&&####........",
"........######&&&&&#######......",
".........######&&&########......",
"..........#####&&&#######*......",
"...........#####&#######**......",
"............###########.****....",
"............##########...***....",
".............#########=...***...",
"...............==========...*...",
"...............====..=====......",
"................=====...===.....",
".................====...........",
"................................"};