/* XPM */
static char * wall 2nd_xpm[] = {
"32 32 8 1",
" 	c None",
".	c #4DF5F5",
"+	c #4F9F4D",
"@	c #14C2C2",
"#	c #3E6E29",
"$	c #0E400C",
"%	c #26C81C",
"&	c #57CC53",
"................................",
"................................",
"...............++++++.....@@@...",
"..@..@@@.......++##++++..@@.....",
"...@@@.....@@@...##$$+++........",
".................###$$++++......",
"...........%.....#$#++$+++......",
"..........%%....##$#+++$+++.....",
".........%%%....##$##++$$++.....",
"......%%%%%....###$##+++$$++....",
".....%%%$%%....###$##+++$$+++...",
"....%%%$$%....###$$##++++$+++...",
"....%%$%%.....###$###++++$$+++..",
"...%%$%%%....####$###.++++$++++.",
"...%%$%%%...####$$###.++++$++++.",
"..%%$$%%...####$$####.++++$++++.",
"..%%$%%....###$$#####..+++$$+++.",
".%%$$%%....###$#####...++++$+++.",
".%%$$%%...###$$####@.@.++++$+++.",
".%%%$%%%..###$#####@@@.++++$+++.",
".%%%$$&&&%###$$####....+++$$+++.",
".%%%%&&&&&&##$$####...++++$$+++.",
".%%%%&&&$&&&##$###...++++$$+++..",
"..%%%%&&$$&&&#$###..++++$$+++...",
"...%%%&&&$$&&&$###.+++$$+++..@@.",
"......&&&&$$&&$###+++$$++...@@..",
".......&&&&$&&$###++$$++......&.",
"........&&&$&&$###++$$+.&&&&&&&.",
"..@.@@...&&$&#$##.+++$+&&&&$$$&.",
"..@@@....&&$&#$#&&&&&&&&$$$$&&..",
".........&&$&#$&&$$$$$$$$&&&&&..",
".........&&$&#$&$&&&&&&&&&&&...."};