/* XPM */
static char * wall 1st_xpm[] = {
"32 32 9 1",
" 	c None",
".	c #4DF5F5",
"+	c #4F9F4D",
"@	c #14C2C2",
"#	c #0E400C",
"$	c #26C81C",
"%	c #3E6E29",
"&	c #094407",
"*	c #57CC53",
"................................",
"...............++++++...........",
"...........@@@+++##+............",
"......@@@@@@.+++##++............",
"....$...@@...++##++.......@@....",
"....$$$.....+++#+++...@@@@......",
"...$$#$.....+++#+++.............",
"...$$#$.....++#++++.............",
"..$$$#$$....++#++++.........%%..",
"..$$$##$$$..+++#+++........%%%..",
"...$$$#$$$..+++##++........%&%..",
"...$$$#$$$$..+++#+++....%%%%&%..",
"....$$##$$$..+++#++++..%%%%#%%..",
"....$$$#$$$..+++##+++.%%%%#%%...",
"....$$$##$$$..+++#+++.%%%#%%%...",
".....$$$##$$...+++#+%%%%#%%%....",
".....$$$$#$$$..+++#%%%%#%%%.....",
"......$$$##$$$.++%%%%%#%%%%.....",
".....@@$$$##$$.+%%%%%#%%%%%.....",
"..@@@@..$$$##$.%%%%%#%%%%%......",
".@@......$$$#$%%%%##%%%%%.......",
"...........$#$%%%##%%%%%........",
"...........$#%%%##%%%%%.@@@@@...",
"...........$#%%##%%%%%+@@..*....",
"...........$$%%#%%%%#++..***....",
"....*****..$%%##%%%+#++.**&*....",
"...***#***.$%%#%%%********&*....",
"..**#####***%%#%%*****###&**....",
"...****####**%#%***####****.....",
"....******##*%#*###*****........",
".....******#*%#*#******.........",
".........**#*%#*#*..+++........."};