/* XPM */
static char * exit_xpm[] = {
"32 32 5 1",
" 	c None",
".	c #000000",
"+	c #41160B",
"@	c #541E10",
"#	c #4E271E",
"                                ",
"                                ",
"             ......             ",
"          ...++@@@..            ",
"        ..++++++++++..          ",
"      ..++++++++++++++.         ",
"     ..++##+++@@@@+++++..       ",
"     .++##++++@+++@+++++.       ",
"    .++#+++++++++++++++++.      ",
"    .+#+++++++++++++++++#..     ",
"   .++#++++++++++++++++++#..    ",
"   .++#++++@++...++#++++++#.    ",
"   .+#++++@++.....++#++@++#+.   ",
"  .++#++++@+.......++#+@+++++.  ",
"  .++#+++@@.........+#++@++++.  ",
"  .++++++@+.........++#+@@+++.  ",
"  .++++++@+..........+#++@+++.  ",
"  .++++++++..........+#++@+++.  ",
"  .++++++++..........++++@+++.  ",
"  .++++++++..........++++@+++.  ",
"  .++++@++...........++++++++.  ",
"  .++++@++............+++++++.  ",
"  .++++@++............+++++++.  ",
"  .++++@+@............+++++++.  ",
"  .++++@+@............+++++@@.  ",
"  .++++++@............+@++++@.  ",
"  .++++++@............+@++++@.  ",
"  .+++++@@............+@++++@.  ",
"  .++++@++@...........+@++++@.  ",
"  .+@@@@@++..........@@@++++@.  ",
"   .@####@@++......+@@+@@++...  ",
"   ........................     "};
