/* XPM */
static char * floor_xpm[] = {
"32 32 3 1",
" 	c None",
".	c #4B99A0",
"+	c #323FA3",
"................................",
"................................",
"................................",
"................................",
"............++++................",
"..++.....++++...................",
"..+++++++.......................",
"................................",
"................................",
"................................",
"................................",
"...........++++.................",
".........++...+++++.........+...",
"........++........++++++++++....",
"................................",
"................................",
"................................",
"................................",
"................................",
"................................",
".................++.............",
".....++++++...+++...............",
"....+.....++++..................",
"................................",
"................................",
"................................",
".................+++++++++++++..",
"...............++...............",
"................................",
"................................",
"................................",
"................................"};
