/* XPM */
static char * sprite_wall_xpm[] = {
"32 32 202 2",
"  	c #5B3B16",
". 	c #5B3D17",
"+ 	c #5C3D17",
"@ 	c #5D3D16",
"# 	c #5C3E17",
"$ 	c #5D3D17",
"% 	c #5F3F16",
"& 	c #5E3D16",
"* 	c #5C3D16",
"= 	c #5D3F18",
"- 	c #5E3F17",
"; 	c #5D3F17",
"> 	c #5B3C17",
", 	c #5D3E17",
"' 	c #5E3F16",
") 	c #5D3E16",
"! 	c #27180B",
"~ 	c #28180B",
"{ 	c #29190B",
"] 	c #2A1A0B",
"^ 	c #28190B",
"/ 	c #35210E",
"( 	c #462C12",
"_ 	c #35200E",
": 	c #321F0D",
"< 	c #2F1D0D",
"[ 	c #2D1C0D",
"} 	c #2D1B0C",
"| 	c #36220E",
"1 	c #452C12",
"2 	c #492E12",
"3 	c #442C12",
"4 	c #432C12",
"5 	c #482F14",
"6 	c #4D3314",
"7 	c #4F3516",
"8 	c #513716",
"9 	c #543917",
"0 	c #553B18",
"a 	c #573D18",
"b 	c #573E18",
"c 	c #3C2510",
"d 	c #895A22",
"e 	c #8A5B20",
"f 	c #8D5F23",
"g 	c #8C5F24",
"h 	c #8B5B22",
"i 	c #8B5B20",
"j 	c #8C5C22",
"k 	c #8A5C24",
"l 	c #8A5D22",
"m 	c #8D5E21",
"n 	c #8C5D21",
"o 	c #8A5B22",
"p 	c #8C5E23",
"q 	c #8A5C22",
"r 	c #885A22",
"s 	c #8B5D23",
"t 	c #8E6023",
"u 	c #895B22",
"v 	c #895A23",
"w 	c #8C5E22",
"x 	c #895B21",
"y 	c #885A21",
"z 	c #895C22",
"A 	c #8B5D22",
"B 	c #885921",
"C 	c #8A5E23",
"D 	c #754517",
"E 	c #3E2611",
"F 	c #8A5C23",
"G 	c #8C5B20",
"H 	c #8E5F23",
"I 	c #895B20",
"J 	c #8B5E24",
"K 	c #8B5C22",
"L 	c #8B5C21",
"M 	c #8A5B21",
"N 	c #895A21",
"O 	c #8D5F22",
"P 	c #8C5F23",
"Q 	c #8C5D22",
"R 	c #8B5E23",
"S 	c #8A5D23",
"T 	c #704216",
"U 	c #3F2711",
"V 	c #8B5A21",
"W 	c #8B5B21",
"X 	c #8B5F24",
"Y 	c #8A5C21",
"Z 	c #8C5E24",
"` 	c #8A5A22",
" .	c #885C22",
"..	c #3D2610",
"+.	c #8D5C21",
"@.	c #8C5D24",
"#.	c #8A5A21",
"$.	c #8B5E22",
"%.	c #8C5D23",
"&.	c #8B5D21",
"*.	c #895C23",
"=.	c #744416",
"-.	c #513215",
";.	c #8E5E22",
">.	c #8C5C21",
",.	c #895D23",
"'.	c #8D5E24",
").	c #8A5B23",
"!.	c #633C16",
"~.	c #6A421C",
"{.	c #8D5D22",
"].	c #8D5E22",
"^.	c #4D3217",
"/.	c #503115",
"(.	c #8D5E23",
"_.	c #8D5F24",
":.	c #8B5C23",
"<.	c #8B5D24",
"[.	c #885A23",
"}.	c #503317",
"|.	c #4C2F14",
"1.	c #8D5C22",
"2.	c #875820",
"3.	c #8F5F23",
"4.	c #472C13",
"5.	c #8D5D21",
"6.	c #885B22",
"7.	c #8E5E21",
"8.	c #8F6022",
"9.	c #8D6024",
"0.	c #865921",
"a.	c #875922",
"b.	c #442A13",
"c.	c #905F22",
"d.	c #8C5B22",
"e.	c #8E5F24",
"f.	c #895921",
"g.	c #855721",
"h.	c #442912",
"i.	c #8E5D22",
"j.	c #8D5D23",
"k.	c #895B23",
"l.	c #885B23",
"m.	c #845620",
"n.	c #875821",
"o.	c #402811",
"p.	c #8C5F25",
"q.	c #8E6124",
"r.	c #845622",
"s.	c #865820",
"t.	c #523315",
"u.	c #8E6125",
"v.	c #8D5E25",
"w.	c #895C24",
"x.	c #8F6024",
"y.	c #845722",
"z.	c #5E3A16",
"A.	c #69421C",
"B.	c #8E6024",
"C.	c #895D24",
"D.	c #8C5B21",
"E.	c #6A3F16",
"F.	c #6A421B",
"G.	c #8C5C23",
"H.	c #553517",
"I.	c #6E461C",
"J.	c #8D5F25",
"K.	c #895920",
"L.	c #865722",
"M.	c #916325",
"N.	c #533517",
"O.	c #69431C",
"P.	c #875921",
"Q.	c #875A22",
"R.	c #8C5F22",
"S.	c #855720",
"T.	c #885C24",
"U.	c #956625",
"V.	c #543517",
"W.	c #68421C",
"X.	c #8D6025",
"Y.	c #875720",
"Z.	c #926727",
"`.	c #916124",
" +	c #67421C",
".+	c #8B5C20",
"++	c #66431C",
"@+	c #8E5F22",
"#+	c #68431C",
"$+	c #6D471E",
"%+	c #8C6024",
"&+	c #8B5F23",
"*+	c #754D1F",
"=+	c #885B21",
"-+	c #8C5E21",
";+	c #785021",
">+	c #895A20",
",+	c #7B5322",
"'+	c #8A5D21",
")+	c #7F5723",
"!+	c #815A24",
"~+	c #8B5E21",
"    . + @ @ # $ @ @ % & @ * . = - ; * > . $ , , ' ' ) , , @ * * ",
"! ~ { ] ^ / ( _ : < [ } ] | 1 ( 2 1 1 1 3 4 1 5 6 7 8 9 0 a b b ",
"c d e f g h i j k l m n o p q r s t u v w x y z s A z x B s C D ",
"E F G H g u I s J K i L s p M N w O N u P A d x Q s o r u R S T ",
"U s V f P F W Q X l Y u Z p L ` p A o j A K u u q l y y  .g A T ",
"..+.W p C @.#.p $.@.Q d %.n o s p M o s &.N q *.q A u u x f F =.",
"-.j Y s Q ;.>.w ,.'.K z R A u @.Z L N Z A N ).A A F u u z l z !.",
"~.R Y K {.{.w q A Q &.o Z Q d %.].o q p q d S A M q r q S q d ^.",
"/.%.d j {.].Q Q (.A Y z _.K u R w o :.p M y <.A q F u :.s q [.}.",
"|.1.2.&.3.H M A Z R x A (.K d Z s B s f ).#.s l u *.).$.F y r }.",
"4.5.6.d 7.8.W q (.Q o %.p Y u 9.s d Q w q ).A x y *.S P F 0.a.}.",
"b.c.Q o d.{.A :.A L q %.R x q e.%.N A %.N q P q f.u Z f u g.a.}.",
"h.i.j.p k.I u Z s N u _.p N q H (.M A Q ).j A q r r p f l.m.n.}.",
"o.j n <.p.B N 9.R ).W w w ).W n w k.K K q F &.N u l.p q.6.r.s.^.",
"t.A #.s u.o x (.s K q L q @.q Y u v.q M o Z A y w.u s x.l.y.f.z.",
"A.S N s x.K q Q Q Q R M L f R M Y B.S M K _.q d S d Y _.C.a.D.E.",
"F._.N L p s K L q s Z o u Z Z u u _.%.y s p ` r P *.A (.*.k.G.H.",
"I.t o x u _.s N r J.p N u _.p N z _.s K.R g r ` P ,.l j.L.v M.N.",
"O.f g P.y B.R r o B.R u K f R u K f A r (.p Q.z R.F W j S.T.U.V.",
"W.A X.o P.e.P u u _.s u q p s u q p q u $.(.N Y s q M d.Y.z Z.V.",
"W.)._.K B p (.#.q w %.#.A w s #.A A q G.A L s s h o Y G d F `.V.",
" +F R Z N L ].:.o K Q F q K A F S o q <.L u R F q k..+N s S p V.",
"++%.Y P q N q _.F M u Z F M u Z S M 6.p s o s q 6.R q B s @+s V.",
"#+p d A f d M _.S r x 9.S u x 9.S q M Q q s S l M Q A u A w u V.",
"$+(.B W O o u Y %+:.y Q &+:.x (.$.A q Q q K $.A q Q s u A (.d V.",
"*+@+#.K w z S q 9.A 6.l p Q =+$.%.K z s q A Q K z S K o L -+l V.",
";+@+u j w l S r R p Y N R p >+>.A A K Q M K A A K Q K F Y n s V.",
",+w Y L {.K l o K (.s d '+H q L A A q ].q K A A q Q q s F Y F V.",
")+p Y M p s L L q A (.r o f s k.q s :.p q k.q s :.R x F s S :.V.",
"!+(.s o -+(.K >.F A w h k.~+s %.y q p A q %.x q p s u A q q s V.",
"    . + @ @ # $ @ @ % & @ * . = - ; * > . $ , , ' ' ) , , @ * * ",
"! ~ { ] ^ / ( _ : < [ } ] | 1 ( 2 1 1 1 3 4 1 5 6 7 8 9 0 a b b "};