/* XPM */
static char * wall 1st_xpm[] = {
"32 32 7 1",
" 	c #0000FF",
".	c #4F9F4D",
"+	c #0E400C",
"@	c #26C81C",
"#	c #3E6E29",
"$	c #094407",
"%	c #57CC53",
"                                ",
"               ......           ",
"              ...++.            ",
"             ...++..            ",
"    @        ..++..             ",
"    @@@     ...+...             ",
"   @@+@     ...+...             ",
"   @@+@     ..+....             ",
"  @@@+@@    ..+....         ##  ",
"  @@@++@@@  ...+...        ###  ",
"   @@@+@@@  ...++..        #$#  ",
"   @@@+@@@@  ...+...    ####$#  ",
"    @@++@@@  ...+....  ####+##  ",
"    @@@+@@@  ...++... ####+##   ",
"    @@@++@@@  ...+... ###+###   ",
"     @@@++@@   ...+.####+###    ",
"     @@@@+@@@  ...+####+###     ",
"      @@@++@@@ ..#####+####     ",
"       @@@++@@ .#####+#####     ",
"        @@@++@ #####+#####      ",
"         @@@+@####++#####       ",
"           @+@###++#####        ",
"           @+###++#####         ",
"           @+##++#####.    %    ",
"           @@##+####+..  %%%    ",
"    %%%%%  @##++###.+.. %%$%    ",
"   %%%+%%% @##+###%%%%%%%%$%    ",
"  %%+++++%%%##+##%%%%%+++$%%    ",
"   %%%%++++%%#+#%%%++++%%%%     ",
"    %%%%%%++%#+%+++%%%%%        ",
"     %%%%%%+%#+%+%%%%%%         ",
"         %%+%#+%+%  ...         "};
